<?xml version="1.0" encoding="UTF-8" standalone="no"?>
<svg width="14px" height="14px" viewBox="0 0 14 14" version="1.1" xmlns="http://www.w3.org/2000/svg" xmlns:xlink="http://www.w3.org/1999/xlink" xmlns:sketch="http://www.bohemiancoding.com/sketch/ns">
    <!-- Generator: Sketch 3.3.1 (12002) - http://www.bohemiancoding.com/sketch -->
    <title>Responded</title>
    <desc>Created with Sketch.</desc>
    <defs></defs>
    <g id="Icons" stroke="none" stroke-width="1" fill="none" fill-rule="evenodd" sketch:type="MSPage">
        <g id="Responded" sketch:type="MSLayerGroup" fill="#A6D700">
            <path d="M13.7101213,9 C12.8495721,11.8914889 10.1710206,14 7,14 C3.13400675,14 0,10.8659932 0,7 C0,3.13400675 3.13400675,0 7,0 C10.1710206,0 12.8495721,2.10851105 13.7101213,5 L12.7292674,5 C11.9027494,2.63212124 9.64976131,0.933333333 7,0.933333333 C3.64947252,0.933333333 0.933333333,3.64947252 0.933333333,7 C0.933333333,10.3505275 3.64947252,13.0666667 7,13.0666667 C9.64976131,13.0666667 11.9027494,11.3678788 12.7292674,9 L13.7101213,9 Z" id="Partial-Copy-5" sketch:type="MSShapeGroup"></path>
            <path d="M6,7.57142857 L14,7.57142857 L14,6.42857143 L6,6.42857143 L8.25,3.85714286 L7.5,3 L4,7 L7.5,11 L8.25,10.1428571 L6,7.57142857 Z" id="Rectangle-21-Copy" sketch:type="MSShapeGroup"></path>
        </g>
    </g>
</svg>