<?xml version="1.0" encoding="UTF-8" standalone="no"?>
<svg width="14px" height="14px" viewBox="0 0 14 14" version="1.1" xmlns="http://www.w3.org/2000/svg" xmlns:xlink="http://www.w3.org/1999/xlink" xmlns:sketch="http://www.bohemiancoding.com/sketch/ns">
    <!-- Generator: Sketch 3.3.1 (12002) - http://www.bohemiancoding.com/sketch -->
    <title>Closed</title>
    <desc>Created with Sketch.</desc>
    <defs></defs>
    <g id="Icons" stroke="none" stroke-width="1" fill="none" fill-rule="evenodd" sketch:type="MSPage">
        <g id="Closed" sketch:type="MSLayerGroup" fill="#468C00">
            <path d="M7,14 C10.8659932,14 14,10.8659932 14,7 C14,3.13400675 10.8659932,0 7,0 C3.13400675,0 0,3.13400675 0,7 C0,10.8659932 3.13400675,14 7,14 Z M7,13.0666667 C10.3505275,13.0666667 13.0666667,10.3505275 13.0666667,7 C13.0666667,3.64947252 10.3505275,0.933333333 7,0.933333333 C3.64947252,0.933333333 0.933333333,3.64947252 0.933333333,7 C0.933333333,10.3505275 3.64947252,13.0666667 7,13.0666667 Z" id="Partial-Copy-4" sketch:type="MSShapeGroup"></path>
            <path d="M3.40909091,7.83577713 L3.40909091,3.61290323 L2.5,3.61290323 L2.5,8.30498534 L2.5,8.77419355 L12.5,8.77419355 L12.5,7.83577713 L3.40909091,7.83577713 L3.40909091,7.83577713 Z" id="Rectangle-21" sketch:type="MSShapeGroup" transform="translate(7.500000, 6.193548) rotate(-45.000000) translate(-7.500000, -6.193548) "></path>
        </g>
    </g>
</svg>