<?xml version="1.0" encoding="UTF-8" standalone="no"?>
<svg width="14px" height="14px" viewBox="0 0 14 14" version="1.1" xmlns="http://www.w3.org/2000/svg" xmlns:xlink="http://www.w3.org/1999/xlink" xmlns:sketch="http://www.bohemiancoding.com/sketch/ns">
    <!-- Generator: Sketch 3.3.1 (12002) - http://www.bohemiancoding.com/sketch -->
    <title>Overdue</title>
    <desc>Created with Sketch.</desc>
    <defs></defs>
    <g id="Icons" stroke="none" stroke-width="1" fill="none" fill-rule="evenodd" sketch:type="MSPage">
        <g id="Overdue" sketch:type="MSLayerGroup" fill="#D90000">
            <path d="M7,14 C10.8659932,14 14,10.8659932 14,7 C14,3.13400675 10.8659932,0 7,0 C3.13400675,0 0,3.13400675 0,7 C0,10.8659932 3.13400675,14 7,14 Z M7,13.0666667 C10.3505275,13.0666667 13.0666667,10.3505275 13.0666667,7 C13.0666667,3.64947252 10.3505275,0.933333333 7,0.933333333 C3.64947252,0.933333333 0.933333333,3.64947252 0.933333333,7 C0.933333333,10.3505275 3.64947252,13.0666667 7,13.0666667 Z" id="Partial-Copy-6" sketch:type="MSShapeGroup"></path>
            <path d="M6,3 L8,3 L8,5.1912534 L7.48242812,9.22222222 L6.53035144,9.22222222 L6,5.1912534 L6,3 Z M6,10.1111111 L8,10.1111111 L8,11 L6,11 L6,10.1111111 Z" id="!" sketch:type="MSShapeGroup"></path>
        </g>
    </g>
</svg>