<?xml version="1.0" encoding="UTF-8" standalone="no"?>
<svg width="19px" height="18px" viewBox="0 0 19 18" version="1.1" xmlns="http://www.w3.org/2000/svg" xmlns:xlink="http://www.w3.org/1999/xlink">
    <!-- Generator: Sketch 3.7 (28169) - http://www.bohemiancoding.com/sketch -->
    <title>Properties Icon - Unselected</title>
    <desc>Created with Sketch.</desc>
    <defs></defs>
    <g id="For-April" stroke="none" stroke-width="1" fill="none" fill-rule="evenodd">
        <g id="ICONS" transform="translate(0.000000, -60.000000)" fill="#B9B9B7">
            <g id="Properties-Icon---Unselected" transform="translate(0.000000, 60.000000)">
                <path d="M0,0 L19,0 L19,18 L0,18 L0,0 Z M2,2 L4,2 L4,4 L2,4 L2,2 Z M6,2 L17,2 L17,4 L6,4 L6,2 Z M2,6 L4,6 L4,8 L2,8 L2,6 Z M6,6 L17,6 L17,8 L6,8 L6,6 Z M2,10 L4,10 L4,12 L2,12 L2,10 Z M6,10 L17,10 L17,12 L6,12 L6,10 Z M2,14 L4,14 L4,16 L2,16 L2,14 Z M6,14 L17,14 L17,16 L6,16 L6,14 Z" id="Combined-Shape"></path>
            </g>
        </g>
    </g>
</svg>