<?xml version="1.0" encoding="UTF-8" standalone="no"?>
<svg width="48px" height="48px" viewBox="0 0 48 48" version="1.1" xmlns="http://www.w3.org/2000/svg" xmlns:xlink="http://www.w3.org/1999/xlink">
    <!-- Generator: Sketch 3.7.2 (28276) - http://www.bohemiancoding.com/sketch -->
    <title>Package Icon</title>
    <desc>Created with Sketch.</desc>
    <defs>
        <path d="M18.6288495,27.8271916 L24.3786274,27.8271916 C26.0484447,27.8271916 27.3879632,26.479599 27.3879632,24.8172593 L27.3879632,3.68105532 C27.3879632,2.01779666 26.0406376,0.671122995 24.3786274,0.671122995 L3.00933579,0.671122995 C1.33951848,0.671122995 0,2.0187156 0,3.68105532 L0,9.00165064 L15.6195137,9.00165064 C17.2815239,9.00165064 18.6288495,10.3483243 18.6288495,12.011583 L18.6288495,27.8271916 Z" id="path-1"></path>
        <path d="M18.5140243,27.8271916 L24.3786274,27.8271916 C26.0484447,27.8271916 27.3879632,26.479599 27.3879632,24.8172593 L27.3879632,3.68105532 C27.3879632,2.01779666 26.0406376,0.671122995 24.3786274,0.671122995 L3.00933579,0.671122995 C1.33951848,0.671122995 0,2.0187156 0,3.68105532 L0,9.15345456 L15.5046885,9.15345456 C17.1666988,9.15345456 18.5140243,10.5001282 18.5140243,12.1633869 L18.5140243,27.8271916 Z" id="path-3"></path>
        <rect id="path-5" x="0" y="0.392602496" width="27.3879632" height="27.1560687" rx="3"></rect>
    </defs>
    <g id="For-April" stroke="none" stroke-width="1" fill="none" fill-rule="evenodd">
        <g id="Package-History" transform="translate(-14.000000, -152.000000)">
            <g transform="translate(-2.000000, 130.000000)" id="Package-Icon">
                <g transform="translate(16.000000, 22.000000)">
                    <g id="file_pdf-copy" transform="translate(20.556867, 0.164028)">
                        <mask id="mask-2" fill="white">
                            <use xlink:href="#path-1"></use>
                        </mask>
                        <use id="Combined-Shape" fill="#D0011B" xlink:href="#path-1"></use>
                        <path d="M13.5424888,12.9035237 C10.5412093,12.9035238 18.3172514,28.3239285 21.0456875,23.9953938 C23.7741237,19.6668591 4.53865025,26.4301946 7.67635159,28.5944619 C10.8140529,30.7587293 16.5437683,12.9035236 13.5424888,12.9035237 Z" id="Path-16" stroke-opacity="0.5" stroke="#FFFFFF" stroke-width="4" mask="url(#mask-2)"></path>
                        <path d="M9.74239997,8.60931822 L10.0776132,8.60931822 L10.0776132,7.5701205 L10.7989582,7.5701205 C11.4311958,7.5701205 11.9658397,7.24195279 11.9658397,6.60665378 L11.9658397,6.59823922 C11.9658397,6.01763483 11.5245463,5.66422345 10.8541198,5.66422345 L9.74239997,5.66422345 L9.74239997,8.60931822 Z M10.0776132,7.26719646 L10.0776132,5.97135477 L10.8286606,5.97135477 C11.3081428,5.97135477 11.6263832,6.19013323 11.6263832,6.61086106 L11.6263832,6.61927562 C11.6263832,7.00634521 11.3038996,7.26719646 10.8116878,7.26719646 L10.0776132,7.26719646 Z M12.5768613,8.60931822 L13.6079602,8.60931822 C14.5414655,8.60931822 15.1864327,7.96560465 15.1864327,7.13677084 L15.1864327,7.12835628 C15.1864327,6.29952247 14.5414655,5.66422345 13.6079602,5.66422345 L12.5768613,5.66422345 L12.5768613,8.60931822 Z M13.6079602,5.97135477 C14.3590076,5.97135477 14.8384899,6.48464271 14.8384899,7.13677084 L14.8384899,7.1451854 C14.8384899,7.79731352 14.3590076,8.30218691 13.6079602,8.30218691 L12.9120745,8.30218691 L12.9120745,5.97135477 L13.6079602,5.97135477 Z M15.895048,8.60931822 L16.2302613,8.60931822 L16.2302613,7.32609836 L17.8384362,7.32609836 L17.8384362,7.02317433 L16.2302613,7.02317433 L16.2302613,5.97135477 L18.0293804,5.97135477 L18.0293804,5.66422345 L15.895048,5.66422345 L15.895048,8.60931822 Z" id="PDF" fill="#FFFFFF" mask="url(#mask-2)"></path>
                    </g>
                    <g id="file_dwg-copy" transform="translate(10.278433, 10.038962)">
                        <mask id="mask-4" fill="white">
                            <use xlink:href="#path-3"></use>
                        </mask>
                        <use id="Combined-Shape" fill="#FDBF24" xlink:href="#path-3"></use>
                        <path d="M9.06992924,16.5009554 C7.61167834,16.7345546 6.46268982,17.8766376 6.21953421,19.3257079 L-0.577705679,19.3257079 C-0.901072059,19.3257079 -1.15723788,19.582571 -1.15723788,19.8994277 C-1.15723788,20.2070177 -0.897772476,20.4731474 -0.577705679,20.4731474 L6.21981735,20.4731474 C6.463855,21.9195077 7.61464379,23.0631951 9.06992924,23.2976334 L9.06992924,36.8478306 C9.06992924,37.1558786 9.32679233,37.4116754 9.643649,37.4116754 C9.95123899,37.4116754 10.2173688,37.1592335 10.2173688,36.8478306 L10.2173688,23.2979 C11.6756197,23.0643008 12.8246082,21.9222177 13.0677638,20.4731474 L30.0872716,20.4731474 C30.410638,20.4731474 30.6668038,20.2162844 30.6668038,19.8994277 C30.6668038,19.5918377 30.4073384,19.3257079 30.0872716,19.3257079 L13.0674807,19.3257079 C12.823443,17.8793477 11.6726542,16.7356603 10.2173688,16.5012219 L10.2173688,12.130541 C10.2173688,11.8224929 9.96050568,11.5666961 9.643649,11.5666961 C9.33605902,11.5666961 9.06992924,11.819138 9.06992924,12.130541 L9.06992924,16.5009554 Z M7.32917324,19.6043317 C7.32917324,18.499882 8.22168166,17.6045486 9.33257647,17.6045486 L9.95472154,17.6045486 C11.0611706,17.6045486 11.9581248,18.5003959 11.9581248,19.6043317 L11.9581248,20.1945237 C11.9581248,21.2989734 11.0656164,22.1943067 9.95472154,22.1943067 L9.33257647,22.1943067 C8.22612742,22.1943067 7.32917324,21.2984595 7.32917324,20.1945237 L7.32917324,19.6043317 Z" id="Rectangle-36" fill-opacity="0.5" fill="#FFFFFF" mask="url(#mask-4)"></path>
                        <path d="M8.69220659,8.60931822 L9.72330555,8.60931822 C10.6568108,8.60931822 11.301778,7.96560465 11.301778,7.13677084 L11.301778,7.12835628 C11.301778,6.29952247 10.6568108,5.66422345 9.72330555,5.66422345 L8.69220659,5.66422345 L8.69220659,8.60931822 Z M9.72330555,5.97135477 C10.4743529,5.97135477 10.9538352,6.48464271 10.9538352,7.13677084 L10.9538352,7.1451854 C10.9538352,7.79731352 10.4743529,8.30218691 9.72330555,8.30218691 L9.02741983,8.30218691 L9.02741983,5.97135477 L9.72330555,5.97135477 Z M12.6893062,8.63035461 L12.9693578,8.63035461 L13.7882965,6.24062057 L14.6029919,8.63035461 L14.8872867,8.63035461 L15.9480881,5.66422345 L15.595902,5.66422345 L14.7472609,8.11706667 L13.9325655,5.6558089 L13.6567571,5.6558089 L12.8420616,8.11706667 L11.9934205,5.66422345 L11.6285048,5.66422345 L12.6893062,8.63035461 Z M17.7811529,8.65980556 C18.2818512,8.65980556 18.6976853,8.45364893 18.9734937,8.20962679 L18.9734937,7.03579616 L17.7472073,7.03579616 L17.7472073,7.33451292 L18.65101,7.33451292 L18.65101,8.06657933 C18.4473362,8.23066318 18.133339,8.36108881 17.7938825,8.36108881 C17.0725376,8.36108881 16.6185146,7.83938631 16.6185146,7.13677084 L16.6185146,7.12835628 C16.6185146,6.47202088 17.0895104,5.92086743 17.7472073,5.92086743 C18.1672846,5.92086743 18.4218769,6.05970761 18.65101,6.25744969 L18.8674135,6.00501299 C18.5703891,5.75678358 18.2606351,5.61373612 17.7599369,5.61373612 C16.8688637,5.61373612 16.2705717,6.32897342 16.2705717,7.13677084 L16.2705717,7.1451854 C16.2705717,7.98664104 16.8476477,8.65980556 17.7811529,8.65980556 L17.7811529,8.65980556 Z" id="DWG" fill="#FFFFFF" mask="url(#mask-4)"></path>
                    </g>
                    <g id="file_doc-copy" transform="translate(0.000000, 20.192416)">
                        <mask id="mask-6" fill="white">
                            <use xlink:href="#path-5"></use>
                        </mask>
                        <use id="Mask" fill="#4A90E2" xlink:href="#path-5"></use>
                        <path d="M14.5343708,28.9081972 L14.0173594,28.9081972 L9.27234359,16.1505823 L5.12476322,28.9081972 L4.57328439,28.9081972 L0.816334852,16.8580708 C0.479318326,15.7625992 0.236133912,15.0341977 0.0867743153,14.6728442 C-0.0625852815,14.3114908 -0.257898748,14.0452343 -0.499171942,13.8740669 C-0.740445137,13.7028995 -1.14064626,13.6059061 -1.69978731,13.5830837 L-1.69978731,13.0581729 L4.14818612,13.0581729 L4.14818612,13.5830837 C3.4435152,13.6287284 2.99161346,13.7295255 2.79246733,13.885478 C2.5933212,14.0414306 2.49374963,14.2601412 2.49374963,14.5416165 C2.49374963,14.7926621 2.65459601,15.4354812 2.97629361,16.4700932 L5.75666604,25.4848658 L9.82382242,13.0581729 L10.4672144,13.0581729 L15.039893,25.4848658 L17.4181455,17.2688705 C17.7321836,16.1581841 17.8892003,15.4316844 17.8892003,15.0893495 C17.8892003,14.0851673 17.349216,13.5830837 16.2692313,13.5830837 L16.2692313,13.0581729 L20.5202139,13.0581729 L20.5202139,13.5830837 C19.8921377,13.6287284 19.4249172,13.85885 19.1185385,14.2734556 C18.8121599,14.6880611 18.4253626,15.6827191 17.9581352,17.2574594 L14.5343708,28.9081972 Z" id="W" fill-opacity="0.27" fill="#FFFFFF" mask="url(#mask-6)"></path>
                        <path d="M9.18229684,8.3492092 L10.2133958,8.3492092 C11.146901,8.3492092 11.7918683,7.70440838 11.7918683,6.87417465 L11.7918683,6.86574588 C11.7918683,6.03551215 11.146901,5.3991401 10.2133958,5.3991401 L9.18229684,5.3991401 L9.18229684,8.3492092 Z M10.2133958,5.70679016 C10.9644432,5.70679016 11.4439254,6.22094506 11.4439254,6.87417465 L11.4439254,6.88260342 C11.4439254,7.535833 10.9644432,8.04155914 10.2133958,8.04155914 L9.51751008,8.04155914 L9.51751008,5.70679016 L10.2133958,5.70679016 Z M13.8795254,8.39978181 C14.7833282,8.39978181 15.398593,7.68755084 15.398593,6.87417465 L15.398593,6.86574588 C15.398593,6.05236969 14.7918146,5.34856749 13.8880118,5.34856749 C12.984209,5.34856749 12.3689442,6.06079846 12.3689442,6.87417465 L12.3689442,6.88260342 C12.3689442,7.69597961 12.9757226,8.39978181 13.8795254,8.39978181 L13.8795254,8.39978181 Z M13.8880118,8.09213175 C13.2090989,8.09213175 12.7168871,7.54426177 12.7168871,6.87417465 L12.7168871,6.86574588 C12.7168871,6.19565876 13.2006125,5.65621755 13.8795254,5.65621755 C14.5584383,5.65621755 15.0506501,6.20408753 15.0506501,6.87417465 L15.0506501,6.88260342 C15.0506501,7.55269054 14.5669247,8.09213175 13.8880118,8.09213175 L13.8880118,8.09213175 Z M17.4650341,8.39978181 C18.0039212,8.39978181 18.3433776,8.19327697 18.6531317,7.88141253 L18.432485,7.66647892 C18.1481902,7.93619952 17.8808682,8.09213175 17.4735205,8.09213175 C16.8200668,8.09213175 16.3236118,7.55690493 16.3236118,6.87417465 L16.3236118,6.86574588 C16.3236118,6.18722999 16.8158236,5.65621755 17.4735205,5.65621755 C17.876625,5.65621755 18.1566766,5.82479293 18.4070257,6.06079846 L18.6361588,5.81636416 C18.3391344,5.53821479 18.0166508,5.34856749 17.4777637,5.34856749 C16.6036634,5.34856749 15.9756689,6.03972653 15.9756689,6.87417465 L15.9756689,6.88260342 C15.9756689,7.72969469 16.6079066,8.39978181 17.4650341,8.39978181 L17.4650341,8.39978181 Z" id="DOC" fill="#FFFFFF" mask="url(#mask-6)"></path>
                    </g>
                </g>
            </g>
        </g>
    </g>
</svg>